<svg xmlns="http://www.w3.org/2000/svg" viewBox="0 0 511.958 511.958"><path d="M234.912 129.259c9.664 13.28 14.496 29.12 14.496 47.648 0 19.04-4.832 34.4-14.624 45.984-5.504 6.432-13.536 12.384-24.16 17.728 16.128 5.824 28.288 15.008 36.576 27.552 8.192 12.544 12.32 27.808 12.32 45.728 0 18.496-4.704 35.104-14.112 49.76-5.952 9.696-13.44 17.92-22.4 24.544-10.08 7.616-21.984 12.832-35.744 15.68-13.76 2.816-28.64 4.192-44.704 4.192H0V95.979h152.896c38.592.576 65.888 11.648 82.016 33.28zm-171.84 20.928v68.864H140c13.696 0 24.864-2.592 33.472-7.744 8.544-5.152 12.864-14.304 12.864-27.392 0-14.592-5.664-24.16-16.992-28.864-9.792-3.232-22.272-4.864-37.408-4.864H63.072zm0 120.512v83.232h76.832c13.728 0 24.448-1.824 32.064-5.504 13.888-6.848 20.8-19.776 20.8-38.976 0-16.288-6.688-27.424-20.128-33.504-7.552-3.36-18.112-5.152-31.68-5.248H63.072zm387.712-88.704c16.352 7.2 29.792 18.592 40.384 34.144 9.664 13.728 15.872 29.632 18.688 47.712 1.664 10.56 2.304 25.888 2.048 45.824H341.44c1.024 23.136 9.088 39.392 24.512 48.672 9.344 5.792 20.544 8.704 33.76 8.704 13.888 0 25.216-3.52 33.92-10.56 4.8-3.84 8.992-9.12 12.608-15.872h62.464c-1.664 13.664-9.248 27.584-22.656 41.728-20.96 22.4-50.304 33.632-88.032 33.632-31.168 0-58.624-9.44-82.4-28.384-23.872-18.912-35.744-49.728-35.744-92.384 0-40 10.752-70.688 32.224-92.032 21.536-21.28 49.376-32 83.648-32 20.416-.032 38.752 3.584 55.04 10.816zm-91.488 52.128c-8.64 8.8-14.08 20.704-16.32 35.712h105.44c-1.12-16.032-6.592-28.16-16.288-36.512-9.824-8.288-21.888-12.416-36.32-12.416-15.648.032-27.872 4.448-36.512 13.216zm-32.128-84.736h135.584v-38.848H327.168v38.848z" fill="#1976d2"/></svg>