<svg xmlns="http://www.w3.org/2000/svg" viewBox="0 0 512 512"><path d="M422.374 89.625a7.604 7.604 0 00-10.754-.001L177.54 323.705a7.602 7.602 0 005.377 12.98 7.58 7.58 0 005.377-2.227l234.081-234.08a7.603 7.603 0 00-.001-10.753z"/><path d="M510.167 69.929c-5.818-34.913-33.183-62.279-68.096-68.097-24.685-4.112-50.586-1.289-76.984 8.396a186.013 186.013 0 00-19.531 8.476 7.57 7.57 0 00-.806.414c-41.531 21.14-74.741 57.505-92.811 102.43a207.472 207.472 0 00-1.481 3.783 238.456 238.456 0 01-1.581-16.355c-.148-2.429-1.316-4.741-3.34-6.092a7.612 7.612 0 00-9.72 1.003c-13.968 14.38-26.368 28.747-37.433 43.008a7.5 7.5 0 00-.715.926c-57.393 74.323-78.475 145.634-94.574 200.113-11.77 39.828-21.067 71.288-39.624 89.845l-.003.003-61.241 61.236a7.602 7.602 0 005.377 12.98 7.58 7.58 0 005.377-2.227l61.249-61.25c18.558-18.551 50.015-27.848 89.84-39.616 39.913-11.795 89.572-26.471 142.089-56.032 2.463-1.386 4.136-3.964 4.119-6.79a7.605 7.605 0 00-5.957-7.397c-10.39-2.307-19.252-4.904-26.61-7.438 7.286-1.077 15.718-2.714 25.23-5.171 55.311-14.287 104.626-45.381 142.615-89.922a646.811 646.811 0 0012.902-15.622 361.024 361.024 0 0010.378-13.614c2.453-3.386 1.988-8.226-1.331-10.768a7.604 7.604 0 00-10.793 1.58 340.918 340.918 0 01-10.131 13.303 82.742 82.742 0 01-28.713 22.87c-54.925 26.421-101.04 33.527-101.55 33.602a7.604 7.604 0 002.228 15.044c1.892-.28 37.651-5.755 84.415-25.269-30.261 25.731-65.526 44.179-103.825 54.071-33.295 8.6-51.993 6.346-52.148 6.326a7.604 7.604 0 00-5.298 13.827c.652.443 13.676 9.137 40.265 17.087-44.882 22.88-87.328 35.424-122.198 45.729-16.749 4.95-32.088 9.485-45.832 14.505l50.035-50.035a7.603 7.603 0 00-.168-10.916c-3.031-2.854-7.868-2.555-10.812.389l-49.809 49.809c5.02-13.743 9.554-29.081 14.503-45.83 9.759-33.02 20.818-70.445 40.126-110.868a470.478 470.478 0 0117.349-32.898c-8.457 27.568-12.777 50.315-12.834 67.731-.012 3.92 2.775 7.426 6.666 7.89a7.607 7.607 0 008.541-7.548c0-25.216 10.401-60.094 19.602-86.01 8.338-23.489 21.118-45.182 37.894-63.616l.262-.287c2.418 18.945 6.19 32.613 6.392 33.339a7.612 7.612 0 007.675 5.552 7.606 7.606 0 007.131-6.235c1.825-10.038 5.043-20.827 9.565-32.068 10.442-25.961 26.343-48.814 46.15-67.064-13.456 22.489-20.563 45.001-20.615 65.61-.01 3.877 2.823 7.318 6.672 7.775a7.607 7.607 0 008.536-7.548c0-32.288 20.023-62.797 33.955-80.116 7.725-9.602 17.838-17.052 29.402-21.31l.176-.065c23.893-8.766 47.192-11.347 69.246-7.672 28.503 4.75 50.845 27.092 55.595 55.595 5.349 32.101-2.563 66.573-23.518 102.459a7.608 7.608 0 003.705 10.882c3.542 1.462 7.601-.079 9.53-3.389 22.723-38.975 31.229-76.808 25.29-112.453z"/></svg>