<svg xmlns="http://www.w3.org/2000/svg" viewBox="0 0 512 512"><circle cx="256" cy="254.272" r="240" fill="#ec407a"/><path d="M256 0C114.848 0 0 114.848 0 256s114.848 256 256 256 256-114.848 256-256S397.152 0 256 0zm223.904 257.92c-54.208-14.304-109.792-15.968-162.752-5.056a897.734 897.734 0 00-23.424-53.344c47.904-22.4 92.192-52.768 131.04-90.304C459.04 148.544 480 199.808 480 256c0 .64-.096 1.248-.096 1.92zm-77.76-171.296c-36.288 35.04-77.568 63.584-122.304 84.448-23.904-45.76-51.872-89.472-83.52-130.752C215.36 35.04 235.296 32 256 32c55.84 0 106.88 20.672 146.144 54.624zm-237.44-34.976a866.546 866.546 0 0185.28 131.488c-67.2 25.664-140.16 35.52-213.216 26.976C51.584 139.2 100.096 80.64 164.704 51.648zM32 256c0-4.8.416-9.504.736-14.208 18.944 2.24 37.888 3.712 56.768 3.712 60.224 0 119.392-11.776 174.848-33.376 7.68 16 14.912 32.224 21.6 48.672-78.656 23.616-148.736 73.984-195.904 145.12C54.112 366.176 32 313.664 32 256zm81.44 172.64c43.392-68.224 109.568-116.32 184.032-138.08a865.266 865.266 0 0143.264 172.672C314.592 473.984 285.984 480 256 480c-54.112 0-103.808-19.296-142.56-51.36zM370.752 448c-8.8-56.384-22.752-111.584-41.856-164.864 48.352-9.088 98.944-6.944 148.224 6.976C466.784 357.184 426.752 414.4 370.752 448z" fill="#c2185b"/></svg>