<svg xmlns="http://www.w3.org/2000/svg" viewBox="0 0 512 512"><path d="M480 80H32C14.368 80 0 94.368 0 112v288c0 17.664 14.368 32 32 32h448c17.664 0 32-14.336 32-32V112c0-17.632-14.336-32-32-32z" fill="#ffc107"/><path d="M432 144h-96c-8.832 0-16 7.168-16 16v96c0 8.832 7.168 16 16 16h96c8.832 0 16-7.168 16-16v-96c0-8.832-7.168-16-16-16zM272 368H80c-8.832 0-16-7.168-16-16s7.168-16 16-16h192c8.832 0 16 7.168 16 16s-7.168 16-16 16zm-64-64H80c-8.832 0-16-7.168-16-16s7.168-16 16-16h128c8.832 0 16 7.168 16 16s-7.168 16-16 16z" fill="#fafafa"/></svg>