<svg xmlns="http://www.w3.org/2000/svg" height="511pt" viewBox="-58 1 511 512" width="511pt"><path d="M314.61 123.258h66.503L279.527 16.66v71.653c0 19.37 15.575 34.945 35.082 34.945zm0 0"/><path d="M257.855 88.313V0H49.805C22.848 0 .5 22.215.5 49.168v413.664C.5 489.789 22.848 512 49.805 512H346.71c26.953 0 49.3-22.215 49.3-49.168V144.93h-81.406c-31.421 0-56.75-25.328-56.75-56.618zM111.57 264.804c4.332-4.063 11.243-3.793 15.305.543l60.547 65.015V175.68c0-5.961 4.875-10.836 10.836-10.836 5.96 0 10.836 4.875 10.836 10.836v154.816l60.547-65.016c4.062-4.332 10.972-4.605 15.304-.543 4.336 4.067 4.606 10.973.543 15.31l-79.375 85.198c-2.031 2.164-4.875 3.383-7.992 3.383-3.113 0-5.824-1.219-7.988-3.383l-79.375-85.199c-3.793-4.473-3.524-11.242.812-15.441zm208.996 164.57c0 5.96-4.875 10.836-10.836 10.836H86.781c-5.96 0-10.836-4.875-10.836-10.836 0-5.96 4.875-10.836 10.836-10.836h223.086c5.961 0 10.7 4.879 10.7 10.836zm0 0"/></svg>