<svg height="512" width="512" xmlns="http://www.w3.org/2000/svg"><path d="M256 502c128.66-31.934 219-147.437 219-280V65.265a461.561 461.561 0 01-219-55.264A461.558 461.558 0 0137 65.265V222c0 132.564 90.34 248.067 219 280z" fill="#f6838d"/><path d="M85 110.98V222c0 106.736 69.727 199.755 171 230.241C357.274 421.755 427 328.736 427 222V110.98c-59.191-5.638-117.264-21.637-171-47.185-53.736 25.548-111.808 41.547-171 47.185z" fill="#fff"/><circle cx="256" cy="256" fill="#ffcb7c" r="80"/><path d="M475 55.265c-74.546 0-148.635-18.696-214.255-54.067a9.996 9.996 0 00-9.489 0C185.635 36.569 111.547 55.265 37 55.265c-5.523 0-10 4.477-10 10V222c0 33.687 5.614 66.822 16.687 98.486 10.792 30.863 26.501 59.6 46.689 85.412s44.295 47.98 71.65 65.889c28.064 18.374 58.871 31.805 91.566 39.919a10.016 10.016 0 004.818 0c39.723-9.859 76.322-27.382 108.781-52.082 4.395-3.345 5.247-9.619 1.902-14.014s-9.619-5.247-14.014-1.902c-29.621 22.54-62.945 38.675-99.079 47.978A278.01 278.01 0 0147 222V75.157c72.668-1.559 144.61-20.077 209-53.832 64.39 33.755 136.332 52.273 209 53.832V222c0 57.221-17.281 112.266-49.976 159.184-3.157 4.531-2.044 10.764 2.487 13.922s10.764 2.043 13.922-2.487C466.477 342.328 485 283.329 485 222V65.265c0-5.523-4.477-10-10-10z"/><path d="M437 110.98a10 10 0 00-9.052-9.955C369.572 95.464 313.165 79.9 260.294 54.764a9.996 9.996 0 00-8.587 0c-52.871 25.136-109.278 40.7-167.655 46.261A10 10 0 0075 110.98V222c0 54.438 17.118 106.2 49.502 149.687 32.284 43.354 76.759 74.52 128.616 90.13a9.996 9.996 0 005.764 0c51.857-15.61 96.332-46.776 128.616-90.13C419.882 328.199 437 276.438 437 222zM417 222c0 101.473-64.569 189.414-161 219.778C159.569 411.413 95 323.472 95 222V119.994c55.911-6.301 110.01-21.47 161-45.15 50.99 23.68 105.089 38.849 161 45.15zm-22.29 189.71c-2.63 0-5.21 1.06-7.07 2.93-1.86 1.86-2.93 4.44-2.93 7.07s1.07 5.2 2.93 7.07c1.86 1.86 4.44 2.93 7.07 2.93s5.21-1.07 7.07-2.93 2.93-4.44 2.93-7.07c0-2.64-1.07-5.21-2.93-7.07a10.033 10.033 0 00-7.07-2.93z"/><path d="M210 256c0 25.364 20.636 46 46 46 10.166 0 19.297-3.347 26.41-9.681a39.068 39.068 0 003.932-4.055c3.549-4.231 2.996-10.539-1.235-14.088-4.232-3.55-10.54-2.996-14.088 1.235a19.005 19.005 0 01-1.911 1.973c-3.44 3.063-7.85 4.616-13.108 4.616-14.336 0-26-11.664-26-26s11.664-26 26-26a25.85 25.85 0 0114.53 4.435c4.576 3.092 10.792 1.889 13.884-2.688 3.092-4.576 1.888-10.792-2.688-13.884C274.113 212.719 265.217 210 256 210c-25.364 0-46 20.636-46 46z"/><path d="M166 256c0 49.626 40.374 90 90 90s90-40.374 90-90-40.374-90-90-90-90 40.374-90 90zm160 0c0 38.598-31.402 70-70 70s-70-31.402-70-70 31.402-70 70-70 70 31.402 70 70z"/></svg>