<svg xmlns="http://www.w3.org/2000/svg" viewBox="0 0 483.319 483.319"><path d="M385.657 161.659h-128l72-152h-160l-40 216h104l-96 248 248-312z" fill="#fae249"/><path d="M1.657 233.659h80v16h-80v-16zm400 0h80v16h-80v-16zm14.349-173.657l56-56 11.313 11.313-56 56-11.313-11.313zM.036 460.003l56-56 11.313 11.313-56 56L.036 460.003zm415.967-36.684l11.313-11.313 56 56-11.313 11.313-56-56zM0 15.312L11.313 3.999l56 56L56 71.312l-56-56zm336.415-9.934a7.998 7.998 0 00-6.758-3.719h-160a7.998 7.998 0 00-7.867 6.547l-40 216a8.001 8.001 0 007.867 9.453h92.328l-91.789 237.109a8.003 8.003 0 0013.726 7.867l248-312a8.003 8.003 0 00-6.265-12.976H270.298l66.586-140.578a7.98 7.98 0 00-.469-7.703zm-85.984 152.859a7.996 7.996 0 007.226 11.422h111.422l-205 257.898 77.039-199.008a7.998 7.998 0 00-7.46-10.89h-94.383l37.039-200h140.703l-66.586 140.578z"/></svg>