<svg height="512" viewBox="0 0 24 24" width="512" xmlns="http://www.w3.org/2000/svg"><path d="M15.7 18.15l-.03.08-5.67 5.6L12.51 17z" fill="#1e88e5"/><path d="M23.854.306a.749.749 0 00-.952-.221l-22.5 11.75a.75.75 0 00.077 1.364l7.75 3a.753.753 0 00.801-.169L23.78 1.28a.749.749 0 00.074-.974z" fill="#64b5f6"/><path d="M23.498.042a.754.754 0 00-.874.295l-10.74 16.25a.746.746 0 00.372 1.118l8.989 3.25a.749.749 0 001.002-.637l1.75-19.5a.75.75 0 00-.499-.776z" fill="#64b5f6"/><path d="M23.25.75L12.255 17.705 10 23.83 8 16z" fill="#2196f3"/></svg>