<svg xmlns="http://www.w3.org/2000/svg" width="252.936" height="252.937"><path d="M250.199 130.708c-3.234-4.784-8.961-7.645-15.317-7.645h-30.998c.326-4.672.447-8.541.485-11.318.027-2.639-2.171-4.779-4.816-4.779H7.107c-2.642 0-4.844 2.135-4.807 4.779.273 20.652 5.577 102.097 71.59 121.932H12.045c-3.909 0-8.245 2.954-9.659 6.604l-1.93 4.966c-1.421 3.646.586 6.604 4.506 6.604h196.727c3.911 0 5.928-2.959 4.509-6.604l-1.941-4.966c-1.419-3.649-5.74-6.604-9.661-6.604h-58.823c22.42-7.024 37.542-21.744 47.716-38.802 42.61-1.204 60.952-30.668 68.102-48.426 2.193-5.445 1.688-11.186-1.392-15.741zm-11.91 10.394c-6.496 16.144-19.919 35.003-47.23 38.816 6.179-14.669 9.516-29.828 11.299-42.513h32.524c1.876 0 3.006.682 3.436 1.33.382.565.372 1.359-.029 2.367zm-136.786-40.364a5.085 5.085 0 003.839 1.755 5.035 5.035 0 003.32-1.239 5.068 5.068 0 00.511-7.159c-.119-.152-13.572-16.048-4.926-26.924 11.528-14.51 4.506-26.357-.821-30.59a5.075 5.075 0 00-7.131.807c-1.724 2.18-1.381 5.349.775 7.096 1.232 1.053 6.924 6.681-.775 16.379-13.878 17.462 4.436 38.968 5.208 39.875zm27.151-90.644a5.073 5.073 0 00.765-7.096 5.077 5.077 0 00-7.131-.81c-5.318 4.235-12.34 16.083-.812 30.592 8.646 10.877-4.807 26.778-4.938 26.924a5.082 5.082 0 00.513 7.16 5.06 5.06 0 003.321 1.239 5.046 5.046 0 003.836-1.755c.784-.907 19.09-22.413 5.22-39.887-7.709-9.686-2.011-15.321-.774-16.367z"/></svg>