<svg xmlns="http://www.w3.org/2000/svg" width="512" height="512" viewBox="0 0 128 128"><path d="M88.807 87.773L76.17 85.291v-2.208A27.78 27.78 0 0091.75 58.15v-.819a9.394 9.394 0 005-15.8V30.5A25.78 25.78 0 0071 4.75H57A25.78 25.78 0 0031.25 30.5v11.036a9.394 9.394 0 005 15.8v.819a27.78 27.78 0 0015.58 24.928v2.208l-12.637 2.482A20.792 20.792 0 0022.44 108.13v13.37a1.75 1.75 0 001.75 1.75h79.62a1.75 1.75 0 001.75-1.75v-13.37a20.792 20.792 0 00-16.753-20.357zm2.943-34.037v-11.28a5.9 5.9 0 010 11.28zm-57-23.236A22.275 22.275 0 0157 8.25h14A22.275 22.275 0 0193.25 30.5v8.749a9.557 9.557 0 00-.753-.242c-.049-.013-.1-.021-.147-.034-.2-.051-.4-.1-.6-.139V31A1.749 1.749 0 0090 29.25c-5.821 0-15.053-6.738-18.119-9.335a1.747 1.747 0 00-2.229-.027C63.238 25.056 45.911 29.25 38 29.25A1.749 1.749 0 0036.25 31v7.834a8.619 8.619 0 00-.572.133c-.058.015-.118.025-.176.041q-.381.1-.752.241zm-2.67 17.59a5.9 5.9 0 012.066-4.49 5.828 5.828 0 012.1-1.149v11.285a5.921 5.921 0 01-4.166-5.646zm7.67 10.06V32.7c8.593-.472 23.59-4.163 30.95-9.233 2.882 2.279 10.895 8.2 17.55 9.153v25.53a24.25 24.25 0 11-48.5 0zM64 85.9a27.64 27.64 0 008.67-1.394v8.174a8.67 8.67 0 01-17.34 0v-8.174A27.64 27.64 0 0064 85.9zm38.06 33.85H25.94v-11.62a17.285 17.285 0 0113.927-16.923l11.963-2.35v3.823a12.17 12.17 0 0024.34 0v-3.823l11.963 2.35a17.285 17.285 0 0113.927 16.923z"/><path d="M93.957 96.57a1.751 1.751 0 00-2.176 2.743 11.352 11.352 0 013.415 4.513 1.75 1.75 0 103.231-1.347 14.874 14.874 0 00-4.47-5.909zM74.033 69.43a1.75 1.75 0 10-2.232-2.7A10.67 10.67 0 0164 69.539a10.67 10.67 0 01-7.8-2.805 1.75 1.75 0 10-2.232 2.7A14.049 14.049 0 0064 73.039a14.049 14.049 0 0010.033-3.609zm2.384-18.33a4.75 4.75 0 10-4.75-4.75 4.756 4.756 0 004.75 4.75zm0-6a1.25 1.25 0 11-1.25 1.25 1.251 1.251 0 011.25-1.25zm-20.084 1.246a4.75 4.75 0 10-4.75 4.75 4.756 4.756 0 004.75-4.75zm-4.75 1.25a1.25 1.25 0 111.25-1.25 1.252 1.252 0 01-1.25 1.254z"/></svg>