<svg xmlns="http://www.w3.org/2000/svg" viewBox="0 0 291.282 291.282"><path d="M.013 145.641c0 57.627 33.502 107.479 82.088 131.039L12.63 86.358C4.537 104.483.013 124.512.013 145.641zm243.961-7.356c0-17.998-6.482-30.479-12.017-40.166-7.374-11.999-14.284-22.149-14.284-34.157 0-13.392 10.123-25.845 24.471-25.845l1.866.127C218.101 14.511 183.58 0 145.672 0 95.656 0 51.558 25.226 25.348 63.626c10.943.209 46.83.337 46.83.337 7.829-.437 8.758 11.07.91 12.017 0 0-7.875.919-16.66 1.384l53.047 157.74 31.872-95.58-22.705-62.16c-7.838-.473-15.267-1.384-15.267-1.384-7.857-.473-6.928-12.454.938-12.017h77.181c7.82-.437 8.758 11.07.91 12.017 0 0-7.875.919-16.66 1.384l52.638 156.529 14.539-48.505c7.348-18.945 11.053-34.63 11.053-47.103zm-95.753 20.101l-43.716 126.979a145.33 145.33 0 0041.158 5.917c16.942 0 33.219-2.931 48.359-8.266l-1.029-1.994-44.772-122.636zm125.222-82.634a110.373 110.373 0 011.001 15.003c0 14.766-2.777 31.371-11.097 52.155l-44.472 128.599c43.288-25.226 72.393-72.138 72.393-125.868.009-25.326-6.455-49.132-17.825-69.889z" fill="#d54e21"/></svg>