<svg height="512" viewBox="0 0 24 24" width="512" xmlns="http://www.w3.org/2000/svg"><path d="M22.25 0H1.75C.785 0 0 .785 0 1.75v2.5C0 5.215.785 6 1.75 6h20.5C23.215 6 24 5.215 24 4.25v-2.5C24 .785 23.215 0 22.25 0z" fill="#03a9f4"/><path d="M10.25 9H.75a.75.75 0 000 1.5h9.5a.75.75 0 000-1.5zm0 3H.75a.75.75 0 000 1.5h9.5a.75.75 0 000-1.5zm0 3H.75a.75.75 0 000 1.5h9.5a.75.75 0 000-1.5zm0 3H.75a.75.75 0 000 1.5h9.5a.75.75 0 000-1.5zm0 3H.75a.75.75 0 000 1.5h9.5a.75.75 0 000-1.5z" fill="#90a4ae"/><path d="M23.93 9.31A1.729 1.729 0 0022.25 8h-7.5a1.729 1.729 0 00-1.68 1.31c-.05.14-.07.29-.07.44v12.5c0 .15.02.3.07.44A1.729 1.729 0 0014.75 24h7.5a1.729 1.729 0 001.68-1.31c.05-.14.07-.29.07-.44V9.75c0-.15-.02-.3-.07-.44z" fill="#cfd8dc"/><path d="M19.41 16l3.09-4.57 1.43-2.12c-.13-.54-.52-.97-1.02-1.18l-.92 1.37-3.49 5.16-3.49-5.16-.92-1.37c-.5.21-.89.64-1.02 1.18l1.43 2.12L17.59 16l-3.09 4.57-1.43 2.12c.13.54.52.97 1.02 1.18l.92-1.37 3.49-5.16 3.49 5.16.92 1.37c.5-.21.89-.64 1.02-1.18l-1.43-2.12z" fill="#90a4ae"/></svg>